<?xml version="1.0" encoding="utf-8"?>
<!-- Generator: Adobe Illustrator 15.1.0, SVG Export Plug-In . SVG Version: 6.00 Build 0)  -->
<!DOCTYPE svg PUBLIC "-//W3C//DTD SVG 1.1//EN" "http://www.w3.org/Graphics/SVG/1.1/DTD/svg11.dtd">
<svg version="1.1" id="Layer_2" xmlns="http://www.w3.org/2000/svg" xmlns:xlink="http://www.w3.org/1999/xlink" x="0px" y="0px"
	 width="972px" height="176px" viewBox="0 0 972 176" enable-background="new 0 0 972 176" xml:space="preserve">
<g>
	<g>
		<path d="M295.962,171.511c-49.933,0-82.197-31.909-82.197-81.286c0-52.769,33.929-89.621,82.506-89.621
			c1.062,0,2.13,0.02,3.206,0.055c26.161,0.867,45.248,11.346,52.434,15.291l0.255,0.139c0.971,0.525,2.159,1.173,2.622,1.361
			c0.562-0.188,1.286-0.778,1.829-1.227c0.92-0.754,1.79-1.467,2.795-1.467c0.129,0,0.306,0.008,0.516,0.069
			c1.418,0.47,1.5,1.698,1.774,5.772l0.032,0.457c0.12,1.756,0.278,4.086,0.568,7.096c0.356,4.346,0.794,7.592,1.348,11.697
			l0.034,0.271c0.395,2.826,0.836,6.029,1.313,10.16c0.006,1.378,0.006,2.812-1.718,3.375c-0.283,0.072-0.466,0.098-0.645,0.098
			c-1.611,0-2.376-1.605-3.115-3.163l-0.397-0.832c-4.913-9.819-23.749-41.87-59.83-41.87c-41.925,0-65.971,26.635-65.971,73.066
			c0,46.811,29.177,82.166,67.864,82.244c37.414,0,52-22.788,58.227-32.521l0.321-0.496c0.329-0.516,0.63-0.986,0.911-1.406
			c0.241-0.318,0.398-0.573,0.545-0.815c0.599-0.965,1.531-2.179,3.162-1.787c1.396,0.675,1.311,2.021,1.243,3.099l-0.013,0.304
			c-0.012,0.241-0.024,0.497-0.024,0.766c-0.62,2.65-1.783,7.021-2.656,10.222l0.007,0.102c-0.703,2.953-1.075,5.301-1.346,7.02
			c-0.416,2.615-0.638,4.002-1.409,4.764c-0.463,0.601-5.389,5.051-15.728,9.677c-5.574,2.5-20.963,8.403-43.458,9.295
			C299.282,171.477,297.605,171.511,295.962,171.511z"/>
	</g>
	<path d="M361.391,140.8"/>
	<path d="M359.399,16.203"/>
	<path d="M299.445,6.773"/>
	<g>
		<path d="M51.788,171.663c-17.232,0-32.508-5.394-41.905-14.8l-0.341-0.342c-2.247-2.239-4.015-3.998-4.973-9.551
			c-0.977-5.08-2.603-13.234-3.062-14.798l-0.066-0.3c-0.29-1.352-0.678-3.239-0.678-4.071c0-2.837,1.601-4.528,4.283-4.528
			c3.227,0,4.52,2.998,6.158,6.793l0.876,1.976c8.629,20.072,21.235,29.822,38.542,29.822l0.574-0.003
			c25.983-0.321,39.157-20.473,39.157-59.896L90.277,30.1c0-6.484,0-19.978-19.455-21.783L70.428,8.27
			C68.44,8.027,64.75,7.58,64.75,4.502c0-0.838,0.343-3.574,4.762-3.574c2.382,0,9.706,0.396,16.794,0.779l0.659,0.038
			c7.591,0.409,15.438,0.838,18.158,0.838c3.757,0,8.928-0.252,13.085-0.454l0.381-0.02c2.758-0.139,4.929-0.238,5.96-0.238
			c2.691,0,4.056,1.122,4.056,3.338c0,2.287-2.834,2.973-4.043,3.266l-1.624,0.338c-5.241,1.049-9.763,1.953-10.699,6.822
			c-0.7,2.795-1.333,5.986-1.573,14.807l0,0c0,0-0.227,12.887-0.315,24.314v41.997C110.351,151.984,80.101,171.663,51.788,171.663z"
			/>
	</g>
	<g>
		<path d="M154.174,175.396l-0.684-0.686c-4.699-4.688-9.556-9.542-14.109-14.705l-0.552-0.619l0.533-0.641
			c3.627-4.354,8.515-10.037,14.146-15.35l0.644-0.606l0.661,0.586c4.945,4.354,9.209,9.403,13.874,15.074l0.523,0.636l-0.545,0.618
			c-4.399,4.995-8.947,10.155-13.807,15.007L154.174,175.396z"/>
	</g>
	<g>
		<path d="M417.965,170.799c-0.858,0-1.642-0.255-2.194-0.725c-0.614-0.489-0.966-1.227-0.966-2.059c0-2.06,1.593-2.58,2.646-2.927
			l0.229-0.077c0.182-0.062,0.375-0.13,0.571-0.212c10.317-4.237,12.812-6.467,13.641-18.651c0.303-4.551,0.893-24.071,0.893-38.861
			c0-12.553-0.173-20.917-0.395-31.506l-0.197-9.778c-0.093-4.34-0.165-8.362-0.229-12.093c-0.366-20.852-0.565-32.334-3.255-37.475
			c-2.253-4.041-4.708-4.723-10.64-6.359c-1.295-0.355-2.735-0.756-4.351-1.241c-0.368-0.144-0.647-0.231-0.907-0.313
			c-1.105-0.362-2.479-0.813-2.479-2.705c0-2.028,1.84-3.062,5.468-3.062c3.887,0,6.489,0.158,9.003,0.312
			c2.364,0.146,4.597,0.281,7.75,0.281c11.476,0.19,22.008-0.305,31.145-0.734c4.021-0.192,7.725-0.372,11.033-0.463
			c0.484-0.014,0.964-0.019,1.438-0.019c11.432,0,23.107,3.226,32.033,8.851c9.23,6.059,15.426,18.771,15.426,31.646
			c0,16.079-9.449,30.998-25.918,40.936l-0.396,0.256c-0.77,0.488-1.82,1.154-1.82,1.916c0.229,1.93,10.711,17.845,13.27,21.268
			c0.252,0.375,22.207,33.285,27.205,39.163c7.248,9.058,13.971,14.517,15.811,15.308c2.076,0.89,5.021,1.762,7.885,2.334
			c1.705,0.336,2.568,1.157,2.568,2.443c0,2.546-4.986,4.257-9.643,4.257c-8.461,0-15.947-1.418-21.084-3.989
			c-3.936-2.103-10.395-7.277-18.938-20.08c-7.312-11.131-22.812-35.447-25.196-40.221c-3.179-4.885-5.464-7.486-8.805-10.82
			c-1.807-2.312-5.193-3.598-10.144-3.907c-0.729,0.053-2.726-0.165-4.624-0.328c-1.615-0.14-3.146-0.271-3.699-0.271
			c-4.793-0.144-7.021,0.186-8.303,1.492c-1.952,1.985-2.25,6.963-2.11,14.889c0,0.004,0.303,26.055,0.303,26.955
			c0.147,4.979,0.429,8.772,0.885,11.912c0.568,3.941,1.472,7.033,2.771,9.457c2.276,4.077,5.87,6.477,12.396,8.262
			c2.273,0.621,5.116,0.961,6.997,1.188c0.896,0.105,1.632,0.195,2.159,0.283c0.332,0.095,0.487,0.143,0.643,0.18
			c0.707,0.184,2.158,0.559,2.158,2.206c0,1.235-0.518,2.707-2.996,2.707c-1.582,0-5.862-0.255-11.731-0.618
			c-5.947-0.371-14.092-0.882-17.301-0.882c-5.124,0-18.808,0.903-27.11,1.79C418.63,170.764,418.299,170.799,417.965,170.799z
			 M462.188,10.68c-9.117,0-12.511,3.146-12.511,11.6l-0.009,1.886c-0.214,41.646-0.089,49.841,0.006,51.021
			c0.26,5.336,2.831,6.567,8.139,7.197c5.342,0.529,11.741,0.586,14.243,0.586c20.15,0,33.169-12.307,33.169-31.354
			C505.226,25.98,489.135,10.68,462.188,10.68z"/>
	</g>
	<path d="M636.185,144.626"/>
	<g>
		<path d="M599.73,169.173c-2.242,0-3.287-0.299-4.736-0.715c-1.637-0.53-2.535-1.545-2.535-2.704c0-0.564,0.236-2.404,3.301-2.404
			c7.035-0.312,10.031-1.8,12.277-6.109c2.531-4.863,2.914-9.051,2.914-20.922c0-0.516,0.02-2.645,0.045-5.846
			c0.086-9.574,0.26-29.494,0.26-44.143c0-8.67,0-13.448-0.305-22.114c-0.285-15.099-1.188-38.962-1.197-39.2
			c-0.033-1.453-0.207-2.851-0.516-4.16c-2.086-8.094-9.688-12.472-15.773-12.472c-1.684,0-4.498,0-4.498-3.003
			c0-0.669,0.289-1.268,0.861-1.783c0.977-0.839,2.541-1.221,4.834-1.221c1.213-0.129,4.258-0.095,8.002-0.014
			c4.049,0.07,13.529,0.09,13.531,0.09c13.444,0.306,20.61,0.003,34.067,0.302c8.67-0.146,16.925-0.353,24.459-0.562l5.116-0.146
			c1.297-0.062,2.689-0.118,3.97-0.157c4.905-0.146,9.396-0.276,13.382-0.371c0.859,0,1.581,0.164,2.168,0.483h0.064l0.259,0.192
			c0.05,0.003,0.278,0.102,0.478,0.328c0.61,0.701,0.832,1.729,0.662,3.051c-1.494,9.603-1.783,15.521-2.088,24.131
			c0,4.415-2.294,4.759-2.994,4.759c-1.164,0-2.406-0.713-2.406-2.707c0-10.938-3.236-16.351-11.168-18.679
			c-2.457-0.678-4.826-1.062-7.433-1.205c-9.256-0.604-10.409-0.604-17.909-0.604c-7.381,0-19.693,0.306-21.396,0.592
			c-4.516,0.559-6.992,2.39-7.271,10.451c-0.006,0.125-0.593,11.151-0.593,18.521v21.854c0.241,14.377,2.114,14.973,9.229,14.973
			c0.848,0,1.762-0.016,2.748-0.035c1.168-0.02,2.443-0.04,3.822-0.04c6.984,0,13.021,0,18.234-0.29
			c3.688-0.202,6.738-0.555,9.332-1.07c8.311-1.771,12.418-5.705,13.73-13.148c-0.013-0.781,0.629-3.391,2.696-3.391
			c2.101,0,2.101,2.539,2.101,3.902c-0.041,1.293-0.094,2.462-0.142,3.577l-0.077,1.862c-0.209,4.804-0.373,8.595-0.373,14.312
			c0,11.854,0.639,17.646,0.879,19.826c0.254,1.518,0.604,3.543-0.972,4.307c-0.944,0.344-1.425,0.247-2.015-0.046
			c-0.664-0.334-1.166-0.979-1.448-1.87c-0.894-4.133-3.567-10.635-4.933-12.537c-1.842-2.121-4.135-3.652-9.707-4.504
			c-2.485-0.358-5.451-0.578-9.057-0.678c-3.953-0.102-8.77-0.076-14.648,0.062c-5.137,0-10.539,0.306-13.395,0.588
			c-3.15,0.266-5.418,0.457-5.418,6.522v33.224c0,13.98,1.135,19.785,2.355,23.979c1.138,3.961,5.631,5.885,13.744,5.885
			c6.697,0,16.844-0.98,24.676-2.381c14.447-1.888,20.693-3.773,26.107-6.214c3.381-1.63,6.342-3.646,9.028-6.147l0.28-0.271
			c0.15-0.145,0.298-0.283,0.439-0.427c0.467-0.466,0.852-0.913,1.246-1.36l0.207-0.238c1.152-1.361,2.215-2.826,3.232-4.477
			c0.757-1.538,2.557-3.154,4.119-2.604c0.67,0.164,1.209,0.556,1.519,1.138c0.544,1,0.192,2.27-0.179,3.38
			c-0.273,0.718-0.521,1.441-0.782,2.212c-0.987,2.912-2.595,6.937-6.22,12.246c-0.506,0.764-1.098,1.565-1.713,2.386l-0.26,0.357
			c-0.32,0.455-0.746,1.025-0.777,1.059c-5.443,6.975-11.465,11.042-16.877,11.363c-3.021,0.167-5.924,0.249-8.864,0.249
			c-5.392,0-10.513-0.277-16.442-0.601l-4.726-0.248c-11.056-0.6-20.476-0.6-29.586-0.6c-2.91,0-7.677,0.482-12.728,0.992
			l-2.767,0.307c-3.563,0.358-7.25,0.715-10.504,0.831C601.494,169.136,600.529,169.173,599.73,169.173z"/>
	</g>
	<g>
		<path d="M890.185,172.607c-1.969,0-2.562-1.647-3.253-3.56l-0.353-0.955c-0.213-0.493-22.799-53.424-29.021-68.524
			c-0.291-1.351-1.185-2.092-1.498-2.092c-0.384,0-0.506,0.105-1.086,0.955c-0.159,0.234-0.332,0.489-0.539,0.762
			c-2.317,3.805-13.685,32.726-21.198,51.861c-2.804,7.125-5.158,13.129-6.508,16.461c-0.875,3.482-1.904,5.092-3.294,5.092
			c-1.888,0-2.985-2.527-3.351-4.695c-1.606-4.081-9.231-22.7-18.062-44.256c-13.259-32.379-29.761-72.674-32.479-80.092
			c-5.582-15.906-11.66-26.353-14.385-29.496c-3.693-4.172-7.254-5.08-12.644-6.455l-2.787-0.701
			c-1.004-0.204-3.108-0.637-3.108-3.151c0-2.071,2.562-3.003,5.103-3.003c2.7,0,5.547,0.174,8.989,0.396
			c3.748,0.246,7.629,0.496,11.961,0.496c5.896,0,13.201-0.439,17.564-0.705c1.871-0.112,3.229-0.188,3.688-0.188
			c0.759,0,3.066,0,3.843,2.314l0.062,0.386c0,1.888-1.104,2.646-2.029,2.942c-0.445,0.164-0.967,0.328-1.482,0.488
			c-2.318,0.717-4.371,1.346-5.377,3.488c-0.057,0.157-0.088,0.242-0.125,0.325c-0.092,0.229-0.184,0.522-0.271,0.845
			c-0.1,0.491-0.193,1.098-0.229,1.803c0,2.049,3.441,13.771,5.018,17.858c3.297,8.554,36.027,89.104,42.158,100.771
			c0.979,1.967,2.535,3.674,3.34,3.674c0.221,0,0.896,0,2.104-2.724c7.57-17.554,19.611-46.308,19.672-48.694
			c-0.178-2.979-21.914-57.691-23.525-60.592c-2.131-4.244-3.729-6.986-5.379-9.201c-3.461-3.898-7.553-4.938-12.729-6.25
			l-2.701-0.693c-0.307-0.079-0.453-0.109-0.604-0.139c-1.02-0.209-3.342-0.688-3.342-3.396c0-0.557,0.252-0.941,0.42-1.201
			c0.023-0.051,0.061-0.132,0.096-0.197c1.378-1.797,4.488-1.845,4.84-1.845c2.76,0,5.713,0.181,9.014,0.396l0.404,0.029
			c3.617,0.229,7.359,0.469,11.531,0.469c5.918,0,13.201-0.439,17.553-0.705c1.625-0.102,3.188-0.188,3.702-0.188
			c2.188,0,3.521,0.812,4.069,2.486l0.074,0.415c0,1.146-0.461,2.046-1.375,2.68l-0.242,0.178c-0.176,0.099-0.848,0.443-1.024,0.502
			c-5.58,2.074-6.623,3.357-6.623,8.113c0,5.779,8.606,26.965,11.847,34.94c1.125,2.77,1.518,3.743,1.592,4.044
			c0.967,3.234,1.719,4.345,2.953,4.345c0.801,0,1.467-0.528,2.707-3.31c0.189-0.521,0.924-2.332,1.944-4.862
			c3.276-8.134,9.378-23.271,11.188-29.149c0.801-4.33,0.318-7.017,0.211-7.511c-0.574-3.426-3.467-4.558-8.533-6.267l-1.963-0.672
			c-1.594-0.627-2.613-1.186-2.613-3.231c0-2.403,2.605-2.403,4.51-2.403c1.27,0,2.748,0.237,4.314,0.49
			c2.057,0.337,5.283,0.872,8.789,0.706c0.154-0.01,16.773-0.896,18.322-0.896c3.352,0,3.615,1.841,3.615,2.402
			c0,1.283-0.525,2.944-3.029,3.567c-2.85,0.856-4.451,1.39-6.389,3.038c-1.205,0.904-2.371,2.445-3.828,5.033
			c-0.188,0.357-0.406,0.762-0.631,1.172c-0.505,0.927-1.025,1.882-1.377,2.799c-3.332,6.679-13.796,31.499-17.65,41.604
			c-4.103,11.196-3.598,13.635-3.574,13.73c1.445,8.373,23.998,57.229,25.082,59.428c2.238,3.627,3.033,4.852,3.924,4.852
			c0.371-0.18,1.336-1.9,1.803-2.728c0.377-0.674,0.727-1.292,1.018-1.677c5.76-10.264,39.193-94.691,39.531-95.544
			c2.465-6.082,7.119-18.577,7.119-22.392c0-0.065-0.021-0.16-0.045-0.271c-0.033-0.154-0.062-0.307-0.078-0.469
			c-0.345-3.014-2.461-5.254-4.373-5.9c-3.006-1.326-6.181-2.423-8.564-2.959c-1.211-0.391-3.34-1.541-3.34-3.271
			c0-2.404,2.525-2.404,3.604-2.404c0.553,0,1.375,0.076,2.516,0.188c2.738,0.27,7.277,0.709,14.844,0.709
			c3.309,0,6.979-0.093,10.221-0.174c2.734-0.07,4.965-0.123,6.547-0.123c1.816,0,3.695,0,4.18,2.473
			c0.418,2.121-0.902,2.938-1.693,3.423l-0.357,0.239c-0.457,0.268-0.951,0.5-1.518,0.763c-1.459,0.678-3.176,1.475-5.195,3.293
			c-1.395,1.228-3.492,4.616-5.764,9.31c-0.49,1.027-0.961,1.995-1.352,2.793c-2.164,4.312-27.852,64.659-44.846,104.592
			c-8.965,21.064-16.047,37.701-16.66,39.041c-0.34,0.679-0.596,1.278-0.82,1.812C892.271,171.243,891.688,172.607,890.185,172.607z
			"/>
	</g>
</g>
</svg>
